<?xml version="1.0" standalone="no"?>
<!DOCTYPE svg PUBLIC "-//W3C//DTD SVG 20010904//EN"
 "http://www.w3.org/TR/2001/REC-SVG-20010904/DTD/svg10.dtd">
<svg version="1.0" xmlns="http://www.w3.org/2000/svg"
 width="512.000000pt" height="512.000000pt" viewBox="0 0 512.000000 512.000000"
 preserveAspectRatio="xMidYMid meet">

<g transform="translate(0.000000,512.000000) scale(0.100000,-0.100000)"
fill="#000000" stroke="none">
<path d="M2250 3943 c-84 -30 -170 -93 -170 -125 0 -4 99 -8 220 -8 227 0 235
-1 340 -48 50 -22 162 -138 190 -197 51 -109 52 -127 57 -785 3 -338 8 -608
11 -600 3 8 29 67 59 130 30 63 63 133 73 155 10 22 34 74 53 115 19 41 44 98
57 125 31 71 54 121 88 195 16 36 48 110 72 164 23 54 45 106 50 115 44 83 51
171 19 240 -23 51 -84 112 -137 136 -48 22 -160 72 -224 100 -61 26 -143 63
-213 95 -112 51 -184 83 -292 131 -27 11 -57 25 -68 30 -67 30 -149 45 -185
32z m973 -551 c27 -24 20 -96 -10 -100 -19 -3 -20 -7 -13 -33 8 -26 5 -35 -15
-55 -30 -30 -62 -30 -106 -1 -27 18 -35 30 -37 60 -2 20 0 37 3 37 4 0 22 -16
41 -35 18 -19 38 -35 43 -35 21 0 21 22 1 50 -24 34 -20 49 12 43 13 -2 30 1
38 7 13 9 12 12 -4 25 -11 8 -32 15 -48 15 -21 0 -28 5 -28 19 0 11 8 22 18
24 28 7 86 -4 105 -21z"/>
<path d="M3140 3924 c-63 -21 -100 -37 -100 -44 0 -8 13 -14 135 -70 249 -112
319 -167 382 -299 35 -74 37 -80 37 -191 0 -128 1 -124 -98 -333 -31 -65 -56
-120 -56 -122 0 -2 -11 -28 -24 -57 -13 -29 -36 -80 -51 -113 -15 -33 -35 -78
-45 -100 -10 -22 -30 -67 -45 -100 -15 -33 -37 -82 -50 -110 -85 -181 -154
-345 -146 -345 3 0 14 8 22 18 9 9 44 42 79 72 35 30 74 64 86 75 12 11 48 43
79 70 32 28 67 58 79 69 11 10 43 37 70 60 27 22 56 48 65 57 9 8 43 38 76 65
33 27 71 58 84 69 13 11 31 27 40 35 9 8 52 44 96 80 104 85 125 108 141 150
3 8 12 30 20 48 21 48 17 110 -10 167 -22 48 -39 71 -161 210 -84 96 -137 157
-180 209 -22 27 -49 58 -60 70 -11 12 -38 44 -60 70 -46 56 -67 81 -98 116
-12 14 -37 42 -55 63 -67 80 -186 132 -252 111z m756 -915 c19 -21 19 -21 -28
-64 -27 -24 -48 -50 -48 -59 0 -9 -12 -18 -27 -22 -16 -4 -34 -11 -41 -17 -9
-7 -18 -5 -30 7 -14 13 -14 20 -4 36 10 16 9 25 -8 52 -11 18 -20 36 -20 40 0
8 53 24 124 38 61 12 61 12 82 -11z"/>
<path d="M3771 2971 c-19 -5 -21 -8 -10 -18 11 -9 19 -7 38 8 24 19 15 22 -28
10z"/>
<path d="M1625 3600 c-162 -7 -200 -12 -245 -33 -43 -20 -107 -97 -124 -150
-9 -28 -15 -51 -13 -53 1 -1 43 17 92 41 306 147 364 163 501 130 97 -23 171
-63 236 -128 33 -33 64 -69 69 -81 5 -11 13 -28 19 -36 5 -8 30 -60 56 -115
43 -94 100 -211 249 -520 35 -71 97 -201 139 -287 41 -87 78 -158 81 -158 4 0
4 24 0 53 -3 28 -10 300 -14 603 l-9 551 -29 55 c-30 59 -71 94 -141 121 -37
15 -86 17 -375 15 -182 -1 -404 -4 -492 -8z m848 -151 c49 -26 50 -74 2 -140
l-35 -49 39 0 c38 0 61 -14 47 -28 -8 -7 -158 -23 -164 -17 -6 6 18 73 27 77
18 7 69 90 64 104 -7 18 -32 18 -39 -1 -9 -22 -54 -20 -54 3 1 48 64 76 113
51z"/>
<path d="M3926 3532 c-3 -5 4 -20 17 -34 12 -13 44 -51 72 -84 27 -32 54 -64
60 -70 131 -145 177 -272 156 -435 -13 -97 -61 -190 -141 -269 -41 -40 -168
-152 -247 -218 -40 -33 -79 -66 -86 -74 -8 -7 -43 -38 -78 -68 -35 -30 -71
-63 -81 -72 -10 -10 -21 -18 -24 -18 -4 0 -12 -6 -18 -13 -6 -8 -51 -47 -101
-88 -49 -41 -99 -83 -110 -95 -11 -11 -51 -46 -90 -78 -38 -32 -74 -62 -78
-66 -4 -3 32 6 80 22 48 15 94 28 102 28 9 0 33 6 56 14 22 8 69 22 105 31 36
9 83 23 105 30 22 7 65 18 95 24 30 7 73 19 95 26 38 12 74 22 215 60 36 9 83
23 105 30 22 7 69 21 105 31 36 10 82 28 102 41 34 21 88 89 88 112 0 5 7 14
15 21 26 21 19 129 -15 244 -34 113 -53 179 -70 246 -7 25 -19 68 -27 95 -20
72 -43 153 -58 210 -49 176 -64 223 -88 274 -39 84 -109 133 -208 147 -27 3
-49 2 -53 -4z m383 -1127 c26 -78 26 -74 0 -68 -12 3 -28 21 -35 39 -22 51
-45 45 -38 -10 5 -37 3 -46 -17 -65 -35 -32 -90 -29 -117 9 -30 41 -29 93 2
114 23 15 25 14 31 -4 4 -11 3 -34 0 -52 -7 -30 -6 -31 21 -24 38 10 40 13 26
36 -7 11 -12 31 -12 45 0 20 5 25 28 26 15 0 36 4 47 9 37 16 43 10 64 -55z"/>
<path d="M1690 3325 c-71 -20 -167 -63 -442 -199 -141 -69 -260 -126 -264
-126 -13 0 -162 -78 -212 -111 -28 -18 -53 -40 -57 -48 -3 -9 -16 -36 -29 -61
-35 -68 -26 -137 35 -267 27 -57 49 -105 49 -107 0 -3 34 -76 76 -163 41 -87
83 -174 92 -193 9 -19 22 -42 27 -50 6 -8 28 -53 50 -100 21 -47 77 -166 125
-265 48 -99 106 -218 128 -265 50 -103 94 -150 168 -178 73 -29 91 -28 182 9
230 94 871 410 911 449 76 77 90 200 35 310 -6 14 -32 68 -57 120 -24 52 -72
151 -105 220 -33 69 -90 188 -127 265 -102 215 -334 677 -348 693 -21 26 -81
58 -129 70 -54 14 -50 14 -108 -3z m97 -198 c18 -23 50 -62 73 -87 22 -25 40
-48 40 -51 0 -14 -46 -18 -65 -5 -28 18 -65 0 -72 -36 -3 -15 -9 -28 -13 -28
-5 0 -14 -2 -22 -5 -11 -4 -16 20 -26 111 -11 108 -11 117 5 130 29 22 46 16
80 -29z m-142 -607 c66 -32 145 -70 176 -84 92 -43 90 -21 28 -296 -11 -52
-25 -117 -30 -144 -4 -27 -12 -53 -17 -58 -4 -4 -51 13 -103 38 -51 25 -141
69 -199 98 l-105 51 1 50 c1 46 16 129 60 320 23 101 21 97 46 90 13 -4 77
-33 143 -65z"/>
<path d="M1751 3063 c-1 -27 3 -33 19 -33 23 0 27 15 6 27 -7 4 -16 15 -19 23
-3 8 -6 0 -6 -17z"/>
</g>
</svg>
