<?xml version="1.0" standalone="no"?>
<!DOCTYPE svg PUBLIC "-//W3C//DTD SVG 20010904//EN"
 "http://www.w3.org/TR/2001/REC-SVG-20010904/DTD/svg10.dtd">
<svg version="1.0" xmlns="http://www.w3.org/2000/svg"
 width="512.000000pt" height="512.000000pt" viewBox="0 0 512.000000 512.000000"
 preserveAspectRatio="xMidYMid meet">
<metadata>
Created by potrace 1.14, written by Peter Selinger 2001-2017
</metadata>
<g transform="translate(0.000000,512.000000) scale(0.100000,-0.100000)"
fill="#000000" stroke="none">
<path d="M2238 3953 c-16 -2 -28 -9 -28 -14 0 -5 -9 -9 -20 -9 -21 0 -120 -90
-120 -109 0 -7 63 -11 193 -13 105 0 201 -2 212 -3 28 -2 88 -16 100 -23 6 -4
15 -7 22 -8 13 -2 77 -46 81 -56 2 -5 8 -8 14 -8 11 0 88 -78 88 -90 0 -5 4
-10 9 -12 14 -5 61 -105 67 -145 3 -21 9 -42 12 -48 3 -5 8 -147 9 -315 12
-1086 8 -965 28 -930 8 14 14 33 15 43 0 9 4 17 9 17 5 0 13 10 16 23 9 31 48
111 58 118 5 3 7 8 5 10 -3 5 28 83 43 109 5 8 14 26 20 40 5 14 21 48 33 75
47 100 114 252 117 263 1 4 8 16 15 27 8 11 14 27 14 37 0 10 5 18 10 18 6 0
10 6 10 13 0 8 6 27 14 43 8 16 21 45 29 64 9 19 27 61 41 93 47 104 54 201
22 269 -24 50 -121 134 -164 143 -10 1 -34 12 -54 23 -20 11 -39 18 -42 15 -3
-4 -6 -2 -6 4 0 10 -46 28 -62 25 -5 -1 -8 2 -8 8 0 5 -6 10 -13 10 -7 0 -30
9 -52 20 -22 11 -42 20 -46 20 -3 0 -49 20 -103 45 -53 25 -98 45 -101 45 -3
0 -26 11 -53 24 -26 13 -63 31 -82 39 -19 8 -65 29 -103 46 -37 17 -74 31 -82
31 -8 0 -15 4 -15 9 0 6 -8 9 -17 9 -10 -1 -38 1 -63 4 -25 3 -57 4 -72 1z"/>
<path d="M3123 3929 c-23 -4 -59 -19 -79 -32 -35 -24 -35 -25 -13 -32 25 -8
175 -78 284 -132 127 -63 178 -112 229 -219 32 -65 38 -91 43 -164 7 -100 -3
-148 -48 -248 -36 -79 -63 -138 -113 -245 -20 -44 -36 -85 -36 -93 0 -8 -4
-14 -10 -14 -5 0 -10 -4 -10 -10 0 -5 -12 -35 -27 -67 -14 -32 -27 -60 -28
-63 -1 -3 -8 -18 -15 -35 -7 -16 -14 -32 -15 -35 0 -3 -17 -40 -38 -83 -20
-44 -37 -80 -37 -82 0 -2 -20 -47 -45 -99 -25 -53 -45 -102 -45 -110 0 -7 -7
-19 -15 -26 -8 -7 -12 -16 -9 -21 3 -5 0 -9 -6 -9 -6 0 -9 -4 -6 -8 3 -5 -4
-23 -14 -40 -23 -38 -9 -52 22 -22 13 12 40 36 61 53 21 18 53 46 71 62 18 17
59 53 91 80 33 28 68 60 79 73 11 12 26 22 33 22 7 0 13 4 13 9 0 4 33 35 73
68 39 34 86 73 102 87 37 33 45 39 124 107 36 29 72 61 81 69 9 8 36 31 60 50
86 69 119 111 139 177 30 101 9 196 -62 274 -13 13 -49 56 -82 94 -55 64 -105
121 -130 149 -6 6 -30 36 -55 66 -25 30 -54 64 -65 76 -11 12 -31 35 -45 53
-14 17 -38 46 -55 64 -28 32 -67 77 -130 154 -14 18 -43 42 -63 54 -20 13 -40
27 -43 32 -3 5 -10 9 -15 8 -5 0 -18 2 -29 4 -54 10 -84 11 -122 4z"/>
<path d="M2270 3613 c-14 -1 -203 -4 -420 -6 -217 -2 -408 -7 -423 -11 -92
-22 -193 -141 -185 -218 l3 -27 55 27 c63 30 58 28 88 37 12 4 22 11 22 16 0
5 4 9 10 9 5 0 40 14 77 31 148 68 244 82 353 53 162 -44 248 -124 340 -319
44 -94 132 -276 255 -530 122 -251 168 -350 166 -354 -2 -2 1 -7 6 -10 5 -3
17 -26 28 -51 25 -58 41 -75 49 -54 3 9 3 21 -1 27 -3 6 -8 211 -10 456 -3
472 -8 691 -17 730 -8 36 -41 96 -69 123 -50 50 -111 71 -211 72 -50 1 -102 1
-116 -1z"/>
<path d="M3923 3542 c-28 -4 -29 -12 -5 -34 27 -26 64 -68 120 -135 28 -34 62
-75 76 -90 14 -15 26 -33 26 -40 0 -7 4 -13 9 -13 8 0 57 -102 68 -143 8 -30
8 -186 0 -218 -13 -51 -51 -125 -86 -169 -49 -61 -56 -68 -141 -140 -41 -35
-77 -66 -80 -69 -3 -4 -43 -38 -90 -76 -47 -38 -96 -81 -110 -95 -14 -14 -63
-56 -110 -95 -47 -38 -94 -79 -106 -90 -11 -11 -38 -34 -60 -52 -21 -18 -51
-42 -65 -55 -14 -13 -52 -45 -84 -73 -32 -27 -65 -57 -73 -65 -8 -8 -26 -22
-39 -31 -34 -23 -17 -30 32 -14 97 31 151 47 165 50 8 2 51 13 95 25 44 12 85
22 90 24 6 1 15 4 20 7 12 8 87 23 98 21 4 -1 7 2 7 6 0 4 8 8 18 9 9 0 76 17
147 38 72 20 139 39 150 41 11 2 56 15 99 28 44 14 83 23 88 20 4 -3 8 0 8 5
0 6 3 10 8 9 12 -3 74 14 117 32 51 22 83 54 118 119 37 70 38 174 1 298 -33
113 -30 101 -39 151 -4 23 -11 42 -14 42 -4 0 -7 8 -8 18 -1 9 -16 67 -33 127
-49 171 -61 217 -71 260 -5 22 -13 51 -18 65 -5 14 -19 58 -32 98 -12 39 -26
72 -31 72 -4 0 -8 6 -8 13 0 6 -12 23 -25 36 -14 13 -25 27 -25 31 0 24 -147
61 -207 52z"/>
<path d="M1720 3342 c-14 -1 -34 -7 -45 -11 -11 -5 -42 -17 -70 -27 -27 -9
-169 -75 -315 -146 -146 -71 -285 -139 -310 -151 -25 -12 -47 -22 -50 -22 -36
-5 -222 -123 -214 -136 3 -5 0 -9 -6 -9 -6 0 -20 -21 -30 -46 -27 -63 -27
-166 0 -217 11 -20 20 -44 20 -52 0 -8 3 -15 8 -15 4 0 16 -21 26 -48 11 -26
50 -110 88 -188 37 -77 68 -146 68 -152 0 -7 5 -12 10 -12 6 0 10 -5 10 -10 0
-6 32 -77 72 -158 40 -81 73 -149 73 -152 1 -3 36 -76 78 -163 42 -87 77 -162
77 -168 0 -5 5 -9 10 -9 6 0 10 -7 10 -15 0 -18 60 -139 72 -143 4 -2 8 -8 8
-14 0 -18 64 -70 110 -90 51 -22 162 -28 168 -9 2 6 10 11 18 11 8 0 31 9 52
19 20 10 40 19 45 20 4 0 37 15 75 32 37 17 72 31 77 32 6 1 12 5 15 8 5 5
175 88 185 89 2 1 43 21 90 45 47 24 85 42 85 38 0 -3 8 1 18 9 15 13 77 44
205 103 56 26 120 96 141 155 34 95 18 153 -132 457 -27 56 -47 104 -44 107 3
3 0 6 -6 6 -6 0 -13 14 -17 30 -4 17 -11 30 -16 30 -5 0 -9 4 -9 10 0 5 -30
72 -66 147 -37 76 -82 172 -101 213 -19 41 -43 83 -52 94 -9 10 -14 19 -13 20
4 1 -14 49 -30 79 -5 10 -43 84 -84 165 -41 81 -87 160 -102 175 -47 50 -131
78 -202 69z"/>
</g>
</svg>
